<?xml version="1.0" standalone="no"?>
<svg viewBox="0 0 200 200" xmlns="http://www.w3.org/2000/svg">
  <path fill="#0F62FE" d="M44.8,-77.1C58.7,-69.5,71.2,-58.9,78.3,-45.6C85.4,-32.2,87.1,-16.1,86.5,-0.4C85.8,15.3,82.7,30.6,76.1,45C69.6,59.3,59.6,72.7,46.4,80.1C33.1,87.6,16.6,89.1,0.6,88.1C-15.4,87.1,-30.8,83.6,-44.8,76.6C-58.8,69.5,-71.3,59,-78.9,45.6C-86.6,32.3,-89.4,16.1,-89.2,0.1C-88.9,-15.8,-85.6,-31.7,-77.7,-44.6C-69.8,-57.6,-57.3,-67.6,-43.6,-75.3C-29.9,-83.1,-14.9,-88.5,0.2,-88.9C15.4,-89.3,30.8,-84.7,44.8,-77.1Z" transform="translate(100 100)" />
</svg>
